<svg width="20" height="20" viewBox="0 0 20 20" fill="none" xmlns="http://www.w3.org/2000/svg">
<path d="M9.11634 1.60938C4.98401 1.60938 1.61786 4.97548 1.61786 9.10776C1.61786 13.24 4.98401 16.6127 9.11634 16.6127C10.8814 16.6127 12.5047 15.9941 13.7876 14.9671L16.911 18.0889C17.0687 18.24 17.2792 18.3233 17.4975 18.3211C17.7159 18.3189 17.9246 18.2312 18.0791 18.0769C18.2336 17.9227 18.3216 17.714 18.3241 17.4957C18.3266 17.2774 18.2436 17.0667 18.0927 16.9089L14.9693 13.7856C15.9971 12.5006 16.6164 10.8748 16.6164 9.10776C16.6164 4.97548 13.2487 1.60938 9.11634 1.60938ZM9.11634 3.27607C12.3479 3.27607 14.9481 5.87623 14.9481 9.10776C14.9481 12.3393 12.3479 14.946 9.11634 14.946C5.88476 14.946 3.28455 12.3393 3.28455 9.10776C3.28455 5.87623 5.88476 3.27607 9.11634 3.27607Z" fill="#051036"/>
</svg>
